<?xml version="1.0" standalone="no"?>
<!DOCTYPE svg PUBLIC "-//W3C//DTD SVG 20010904//EN"
 "http://www.w3.org/TR/2001/REC-SVG-20010904/DTD/svg10.dtd">
<svg version="1.0" xmlns="http://www.w3.org/2000/svg"
 width="700.000000pt" height="700.000000pt" viewBox="0 0 700.000000 700.000000"
 preserveAspectRatio="xMidYMid meet">
<metadata>
Created by potrace 1.14, written by Peter Selinger 2001-2017
</metadata>
<g transform="translate(0.000000,700.000000) scale(0.100000,-0.100000)"
fill="#000000" stroke="none">
<path d="M3280 6994 c-19 -2 -84 -9 -145 -14 -578 -56 -1180 -283 -1660 -625
-237 -169 -531 -446 -709 -670 -416 -521 -673 -1147 -748 -1820 -17 -155 -17
-575 0 -730 52 -469 198 -931 418 -1327 290 -523 731 -983 1239 -1294 439
-269 920 -432 1460 -496 145 -17 576 -17 730 0 822 91 1556 447 2131 1034 203
206 348 390 487 618 274 450 434 920 499 1465 17 144 17 586 0 730 -86 723
-352 1347 -803 1885 -122 145 -351 370 -494 484 -510 407 -1117 661 -1775 742
-117 15 -553 27 -630 18z m367 -1344 c71 -35 115 -82 152 -160 l26 -55 3 -881
3 -881 604 -403 c345 -230 615 -416 628 -434 58 -76 72 -116 72 -211 0 -79 -4
-96 -28 -143 -59 -112 -152 -174 -272 -180 -39 -2 -90 1 -113 8 -59 15 -1440
935 -1476 982 -14 19 -36 56 -48 84 l-23 49 0 1005 0 1005 26 55 c34 71 70
114 127 147 104 61 211 65 319 13z"/>
</g>
</svg>
